<?xml version="1.0" standalone="no"?> <!DOCTYPE svg PUBLIC "-//W3C//DTD SVG 1.0//EN" "http://www.w3.org/TR/2001/REC-SVG-20010904/DTD/svg10.dtd" > <svg xmlns="http://www.w3.org/2000/svg" width="100%" height="100%">
<defs >
<font id="fedrasanspromedium" horiz-adv-x="1001" ><font-face
    font-family="Fedra Sans Pro Medium"
    units-per-em="2048"
    panose-1="2 11 7 3 4 0 0 2 0 4"
    ascent="1597"
    descent="-451"
    alphabetic="0" />
<missing-glyph horiz-adv-x="1458" d="M625 768V823H680V768H625ZM778 1075V1130H834V1075H778ZM625 1075V1130H680V1075H625ZM471 1075V1130H526V1075H471ZM164 0V55H219V0H164ZM317 0V55H373V0H317ZM471 0V55H526V0H471ZM625 0V55H680V0H625ZM778 0V55H834V0H778ZM164
154V209H219V154H164ZM164 307V362H219V307H164ZM164 461V516H219V461H164ZM164 614V670H219V614H164ZM164 768V823H219V768H164ZM164 922V977H219V922H164ZM164 1075V1130H219V1075H164ZM164 1229V1284H219V1229H164ZM164 1382V1438H219V1382H164ZM317 1382V1438H373V1382H317ZM471
1382V1438H526V1382H471ZM625 1382V1438H680V1382H625ZM778 1382V1438H834V1382H778ZM932 1382V1438H987V1382H932ZM1085 1382V1438H1141V1382H1085ZM1085 0V55H1141V0H1085ZM932 0V55H987V0H932ZM1239 0V55H1294V0H1239ZM1239 1382V1438H1294V1382H1239ZM625 614V670H680V614H625ZM625
307V362H680V307H625ZM778 768V823H834V768H778ZM932 768V823H987V768H932ZM932 922V977H987V922H932ZM932 1075V1130H987V1075H932ZM1239 1229V1284H1294V1229H1239ZM1239 1075V1130H1294V1075H1239ZM1239 768V823H1294V768H1239ZM1239 614V670H1294V614H1239ZM1239
307V362H1294V307H1239ZM1239 154V209H1294V154H1239ZM1239 461V516H1294V461H1239ZM1239 922V977H1294V922H1239Z" />
<glyph unicode=" " glyph-name="space" horiz-adv-x="483" />
<glyph unicode="!" glyph-name="exclam" horiz-adv-x="649" d="M205 414L188 768V1448H461V768L446 414H205ZM182 0V254H465V0H182Z" />
<glyph unicode="&quot;" glyph-name="quotedbl" horiz-adv-x="811" d="M115 1055L98 1544H330L311 1055H115ZM500 1055L483 1544H715L696 1055H500Z" />
<glyph unicode="#" glyph-name="numbersign" horiz-adv-x="1359" d="M256 0L268 248H92V463H283L295 676H92V891H313L326 1151H582L567 891H844L858 1151H1112L1098 891H1268V676H1081L1069 463H1268V248H1057L1042 0H786L801 248H524L510 0H256ZM537 463H815L827
676H551L537 463Z" />
<glyph unicode="$" glyph-name="dollar" horiz-adv-x="1087" d="M436 -203L440 -14Q221 -9 76 59L150 258Q252 226 327 213T498 199Q723 199 723 313Q723 326 719 338T706 360T687 379T660 397T630 412T594 427T557 441T517 455T477 469Q433 485 404 496T334 527T265
565T206 612T157 670T127 740T115 827Q115 950 205 1022T440 1118L436 1339H639L635 1126Q725 1123 791 1109T946 1063L885 872Q709 918 571 918Q477 918 436 895T395 827Q395 807 407 789T435 757T483 728T536 704T598 679Q610 674 616 672Q778 610 844 571Q1012
472 1012 324Q1012 249 982 190T899 91T780 28T635 -6L641 -203H436Z" />
<glyph unicode="%" glyph-name="percent" horiz-adv-x="1714" d="M432 748Q359 748 297 767T185 827T107 935T78 1094Q78 1263 183 1362T438 1462Q513 1462 576 1444T690 1386T771 1276T801 1110Q801 942 695 845T432 748ZM432 938Q495 938 533 981T571 1110Q571
1274 438 1274Q383 1274 346 1232T309 1094Q309 1011 339 975T432 938ZM1264 -20Q1190 -20 1128 -1T1016 57T938 165T909 324Q909 493 1014 592T1270 692Q1345 692 1407 674T1522 616T1603 506T1632 340Q1632 227 1581 144T1448 21T1264 -20ZM1264 170Q1326 170
1364 213T1403 340Q1403 504 1270 504Q1214 504 1177 462T1139 324Q1139 241 1170 206T1264 170ZM336 92L193 242L1348 1331L1491 1182L336 92Z" />
<glyph unicode="&amp;" glyph-name="ampersand" horiz-adv-x="1445" d="M508 -23Q421 -23 346 -3T209 60T112 176T76 348Q76 584 365 760Q266 936 266 1090Q266 1152 291 1215T363 1334T492 1426T676 1462Q752 1462 814 1444T917 1394T986 1321T1026 1233T1038
1137Q1038 1064 1009 1002T922 888T799 797T643 715Q763 512 982 375T1440 203L1409 -12Q1142 3 901 135Q817 60 724 19T508 -23ZM532 182Q646 182 739 252Q563 386 455 578Q332 488 332 362Q332 275 389 229T532 182ZM559 870Q663 922 734 986T805 1116Q805 1182
766 1222T659 1262T547 1219T502 1102Q502 987 559 870Z" />
<glyph unicode="&apos;" glyph-name="quotesingle" horiz-adv-x="440" d="M115 1055L98 1544H344L326 1055H115Z" />
<glyph unicode="(" glyph-name="parenleft" horiz-adv-x="743" d="M690 -307L559 -451Q339 -288 206 -29T72 567Q72 894 206 1151T557 1554L696 1417Q322 1095 322 569Q322 312 418 84T690 -307Z" />
<glyph unicode=")" glyph-name="parenright" horiz-adv-x="743" d="M184 -451L53 -307Q228 -145 325 83T422 569Q422 1095 47 1417L186 1554Q404 1408 538 1151T672 567Q672 230 539 -29T184 -451Z" />
<glyph unicode="*" glyph-name="asterisk" horiz-adv-x="876" d="M166 928L70 1100L319 1176L360 1102L166 928ZM322 1210L70 1294L168 1466L362 1286L322 1210ZM336 829L397 1081H479L535 829H336ZM395 1307L342 1559H539L483 1307H395ZM713 922L516 1100L559
1176L809 1094L713 922ZM557 1212L516 1286L711 1462L807 1290L557 1212Z" />
<glyph unicode="+" glyph-name="plus" horiz-adv-x="1179" d="M477 98L479 520L59 518V729L479 723L477 1151H690L682 719L1120 729V518L686 520L690 98H477Z" />
<glyph unicode="," glyph-name="comma" horiz-adv-x="530" d="M68 -266Q95 -207 110 -111T125 68V272H410V143Q410 -101 303 -266H68Z" />
<glyph unicode="-" glyph-name="hyphen" horiz-adv-x="929" d="M160 475V698H770V475H160Z" />
<glyph unicode="." glyph-name="period" horiz-adv-x="557" d="M125 0V279H434V0H125Z" />
<glyph unicode="/" glyph-name="slash" horiz-adv-x="909" d="M94 -127L571 1573H813L338 -127H94Z" />
<glyph unicode="0" glyph-name="zero" horiz-adv-x="1386" d="M684 -25Q394 -25 242 119T90 549Q90 834 251 990T709 1147Q999 1147 1147 995T1296 578Q1296 279 1133 127T684 -25ZM692 203Q838 203 928 298T1018 571Q1018 736 935 828T700 920Q544 920 457 826T369
553Q369 381 459 292T692 203Z" />
<glyph unicode="1" glyph-name="one" horiz-adv-x="757" d="M322 0V913H31V1128L596 1145V0H322Z" />
<glyph unicode="2" glyph-name="two" horiz-adv-x="1060" d="M72 0V225Q103 248 187 307T344 418T492 534T614 656T659 760Q659 849 603 885T444 922Q313 922 170 860L100 1059Q154 1090 256 1118T457 1147Q567 1147 651 1125T787 1068T872 982T917 880T930 768Q930
500 418 221H985V0H72Z" />
<glyph unicode="3" glyph-name="three" horiz-adv-x="1013" d="M403 -346Q359 -346 318 -344T244 -338T180 -330T128 -320T86 -310T54 -301T32 -293T20 -289L74 -68Q245 -115 383 -115Q518 -115 587 -73T657 80Q657 192 587 249T365 324Q340 328 281 328V518L352
524Q594 559 594 745Q594 791 574 826T520 880T446 909T358 918Q294 918 233 905T141 877L76 1069Q227 1143 412 1143Q538 1143 637 1105T798 983T860 780Q860 710 840 652T785 555T716 492T641 451Q698 429 747 398T839 323T907 216T932 82Q932 -32 889 -117T771
-250T603 -322T403 -346Z" />
<glyph unicode="4" glyph-name="four" horiz-adv-x="1228" d="M688 -332V61H45V250L545 1118H963V283H1176V61H963V-332H688ZM301 283H688V969L301 283Z" />
<glyph unicode="5" glyph-name="five" horiz-adv-x="1105" d="M494 -350Q381 -350 273 -336T100 -301L168 -76Q336 -117 492 -117Q614 -117 686 -58T758 102Q758 342 492 342Q343 342 152 324V1118H965V897H416V553Q486 559 545 559Q770 559 901 445T1032 125Q1032
-25 961 -133T770 -296T494 -350Z" />
<glyph unicode="6" glyph-name="six" horiz-adv-x="1245" d="M666 -25Q397 -25 261 129T125 627Q125 1036 305 1249T799 1462Q966 1462 1073 1421L1014 1208Q914 1233 797 1233Q607 1233 502 1083T397 614Q397 387 458 293T680 199Q782 199 842 271T903 459Q903
593 838 655T659 717Q577 717 451 686L460 792L469 899Q587 930 686 930Q924 930 1051 817T1178 479Q1178 321 1108 205T924 32T666 -25Z" />
<glyph unicode="7" glyph-name="seven" horiz-adv-x="1042" d="M362 -375L123 -293L727 874H63V1118H1004V928L362 -375Z" />
<glyph unicode="8" glyph-name="eight" horiz-adv-x="1216" d="M602 -25Q452 -25 339 15T157 142T88 356Q88 416 105 469T149 562T217 639T298 703T389 758Q334 794 294 825T217 899T161 991T141 1098Q141 1278 274 1374T623 1470Q830 1470 956 1366T1083 1116Q1083
1066 1067 1021T1027 942T962 874T887 816T801 762Q859 731 899 707T986 645T1061 572T1108 486T1128 381Q1128 248 1060 156T875 19T602 -25ZM614 182Q724 182 789 235T854 389Q854 463 783 528T588 662Q354 529 354 381Q354 286 425 234T614 182ZM602 850Q811
955 811 1085Q811 1168 764 1217T621 1266Q513 1266 461 1216T408 1083Q408 958 602 850Z" />
<glyph unicode="9" glyph-name="nine" horiz-adv-x="1243" d="M436 -340Q280 -340 168 -299L227 -84Q344 -111 440 -111Q649 -111 746 37T844 477Q848 717 785 819T567 922Q463 922 403 854T342 672Q342 529 405 471T586 412Q685 412 801 444L786 233Q672 201
555 201Q68 201 68 653Q68 771 108 865T219 1021T382 1114T582 1147Q841 1147 980 985T1120 496Q1120 70 943 -135T436 -340Z" />
<glyph unicode=":" glyph-name="colon" horiz-adv-x="632" d="M162 0V279H471V0H162ZM162 840V1118H471V840H162Z" />
<glyph unicode=";" glyph-name="semicolon" horiz-adv-x="630" d="M102 -266Q166 -145 166 23V272H467V100Q467 -107 346 -266H102ZM160 840V1118H469V840H160Z" />
<glyph unicode="&lt;" glyph-name="less" horiz-adv-x="1024" d="M918 111L66 500V743L918 1147V913L283 621L918 344V111Z" />
<glyph unicode="=" glyph-name="equal" horiz-adv-x="1302" d="M172 272L170 483H1130L1133 272H172ZM172 756L170 967H1130L1133 756H172Z" />
<glyph unicode="&gt;" glyph-name="greater" horiz-adv-x="1024" d="M106 111V344L741 621L106 913V1147L958 743V500L106 111Z" />
<glyph unicode="?" glyph-name="question" horiz-adv-x="833" d="M186 362Q141 461 141 547Q141 620 175 685T259 797T358 884T442 963T477 1034Q477 1123 382 1170T92 1233L141 1460Q209 1455 270 1447T394 1422T511 1385T611 1331T691 1258T743 1164T762 1047Q762
987 734 930T664 831T572 747T480 671T409 601T381 530Q381 465 410 399L186 362ZM174 0V254H455V0H174Z" />
<glyph unicode="@" glyph-name="at" horiz-adv-x="1654" d="M782 -150Q624 -150 500 -109T283 15T142 233T92 547Q92 734 139 887T268 1147T465 1327T710 1434T989 1468Q1266 1468 1420 1319T1575 864Q1575 727 1536 616T1430 432T1274 320T1083 281Q998 281 947
319T893 412Q862 368 803 334T698 299Q586 299 527 361T467 578Q467 767 582 891T887 1016Q1027 1016 1155 965L1106 553Q1098 471 1147 471Q1177 471 1213 495T1285 565T1343 690T1366 866Q1366 1079 1262 1183T977 1288Q865 1288 767 1263T583 1181T436 1041T340
834T305 559Q305 426 341 326T444 164T600 73T801 43Q958 43 1139 80L1165 -94Q1054 -128 975 -139T782 -150ZM760 496Q773 496 785 497T809 503T827 509T845 519T859 529T873 540T885 549L924 848Q920 848 908 849T891 850Q804 850 753 782T702 600Q702 496 760
496Z" />
<glyph unicode="A" glyph-name="A" horiz-adv-x="1433" d="M-18 0L553 1448H915L1417 0H1124L967 469H444L266 0H-18ZM522 676H897L723 1270L522 676Z" />
<glyph unicode="B" glyph-name="B" horiz-adv-x="1359" d="M188 0V1448H653Q908 1448 1036 1350T1165 1063Q1165 966 1116 891T993 782V778Q1040 767 1086 741T1174 673T1243 569T1270 434Q1270 230 1138 115T715 0H188ZM469 221H688Q840 221 914 267T989 426Q989
540 909 589T662 639H469V221ZM469 838H641Q766 838 826 884T887 1034Q887 1143 818 1188T604 1233H469V838Z" />
<glyph unicode="C" glyph-name="C" horiz-adv-x="1388" d="M881 -25Q502 -25 299 170T96 715T303 1267T872 1470Q1117 1470 1311 1382L1233 1176Q1154 1199 1117 1208T1017 1225T877 1235Q770 1236 682 1206T526 1117T421 960T383 735Q383 480 528 348T915 215Q1095
215 1253 262L1315 47Q1215 10 1116 -7T881 -25Z" />
<glyph unicode="D" glyph-name="D" horiz-adv-x="1585" d="M188 0V1448H657Q844 1448 994 1406T1256 1278T1428 1053T1489 729Q1489 543 1433 403T1270 175T1013 44T670 0H188ZM467 221H692Q1208 221 1208 709Q1208 968 1067 1097T651 1227H467V221Z" />
<glyph unicode="E" glyph-name="E" horiz-adv-x="1228" d="M188 0V1448H1085V1227H467V831H1040V623H467V221H1133V0H188Z" />
<glyph unicode="F" glyph-name="F" horiz-adv-x="1218" d="M188 0V1448H1139V1227H467V795H1094V586H467V0H188Z" />
<glyph unicode="G" glyph-name="G" horiz-adv-x="1454" d="M879 -23Q513 -23 305 167T96 715Q96 1086 297 1277T881 1468Q1025 1468 1120 1447T1309 1384L1233 1176Q1150 1200 1118 1208T1020 1225T879 1235Q773 1235 685 1207T529 1120T422 964T383 735Q383 603
424 502T538 339T704 246T909 215Q979 215 1057 227V715H1335V57Q1121 -23 879 -23Z" />
<glyph unicode="H" glyph-name="H" horiz-adv-x="1617" d="M188 0V1448H467V836H1151V1448H1430V0H1151V618H467V0H188Z" />
<glyph unicode="I" glyph-name="I" horiz-adv-x="655" d="M188 0V1448H467V0H188Z" />
<glyph unicode="J" glyph-name="J" horiz-adv-x="659" d="M2 -397L-104 -195Q-11 -144 46 -95T136 15T181 143T193 309V1448H475V313Q475 242 472 187T456 69T423 -44T367 -147T282 -242T162 -324T2 -397Z" />
<glyph unicode="K" glyph-name="K" horiz-adv-x="1406" d="M188 0V1448H467V786L1014 1448H1370L778 774L1405 0H1047L467 766V0H188Z" />
<glyph unicode="L" glyph-name="L" horiz-adv-x="1114" d="M188 0V1448H467V225H1096V0H188Z" />
<glyph unicode="M" glyph-name="M" horiz-adv-x="1994" d="M188 0V1448H537L977 231L1475 1448H1806V0H1526V702L1538 999H1530L1135 0H801L459 1001H451L467 715V0H188Z" />
<glyph unicode="N" glyph-name="N" horiz-adv-x="1622" d="M188 0V1448H520L1159 354H1163L1155 524V1448H1436V0H1092L467 1071H459L467 895V0H188Z" />
<glyph unicode="O" glyph-name="O" horiz-adv-x="1701" d="M834 -25Q476 -25 285 176T94 727Q94 1068 303 1269T868 1470Q1053 1470 1195 1414T1427 1257T1562 1021T1608 723Q1608 377 1405 176T834 -25ZM840 199Q941 199 1022 225T1159 298T1252 411T1306 556T1323
725Q1323 959 1203 1103T854 1247Q733 1247 640 1208T491 1099T406 935T377 729Q377 618 404 524T487 356T632 241T840 199Z" />
<glyph unicode="P" glyph-name="P" horiz-adv-x="1294" d="M188 0V1448H717Q955 1448 1098 1318T1241 956Q1241 852 1201 762T1083 602T884 493T610 453H492V672H623Q784 672 867 745T950 948Q950 1227 672 1227H469V0H188Z" />
<glyph unicode="Q" glyph-name="Q" horiz-adv-x="1701" d="M1610 -369Q1371 -369 1294 -352Q1113 -324 1030 -299Q908 -266 819 -266V-68Q933 -68 1057 -96Q1259 -143 1350 -152Q1435 -166 1610 -166V-369ZM834 -25Q476 -25 285 176T94 727Q94 1068 303 1269T868
1470Q1053 1470 1195 1414T1427 1257T1562 1021T1608 723Q1608 377 1405 176T834 -25ZM840 199Q941 199 1022 225T1159 298T1252 411T1306 556T1323 725Q1323 959 1203 1103T854 1247Q733 1247 640 1208T491 1099T406 935T377 729Q377 618 404 524T487 356T632
241T840 199Z" />
<glyph unicode="R" glyph-name="R" horiz-adv-x="1488" d="M1419 -27Q1332 -20 1257 6T1118 79T1004 177T893 301L711 535Q670 528 610 528H469V0H188V1448H717Q957 1448 1099 1334T1241 993Q1241 866 1179 763T993 600L1159 399Q1229 317 1302 267T1483 188L1419
-27ZM469 733H623Q952 733 952 983Q952 1114 887 1170T672 1227H469V733Z" />
<glyph unicode="S" glyph-name="S" horiz-adv-x="1165" d="M524 -25Q270 -25 72 86L154 299Q260 253 340 231T524 209Q654 209 732 258T811 399Q811 444 787 481T723 544T630 593T520 639T404 687T294 747T202 826T137 933T113 1075Q113 1151 140 1216T213 1327T322
1405T454 1454T600 1470Q742 1470 837 1445T1016 1370L934 1163Q851 1200 777 1218T608 1237Q510 1237 449 1194T387 1073Q387 1024 426 984T527 914T665 853T815 784T953 698T1055 577T1094 412Q1094 303 1047 218T919 80T738 2T524 -25Z" />
<glyph unicode="T" glyph-name="T" horiz-adv-x="1259" d="M489 0V1225H20V1448H1239V1225H770V0H489Z" />
<glyph unicode="U" glyph-name="U" horiz-adv-x="1597" d="M803 -27Q704 -27 616 -10T444 49T300 156T203 323T166 557V1448H449V569Q449 383 542 295T803 207Q1159 207 1159 614V1448H1436V608Q1436 489 1410 392T1338 226T1232 108T1100 29T954 -13T803 -27Z" />
<glyph unicode="V" glyph-name="V" horiz-adv-x="1433" d="M518 0L14 1448H311L709 211L1167 1448H1452L885 0H518Z" />
<glyph unicode="W" glyph-name="W" horiz-adv-x="2162" d="M408 0L61 1448H336L614 176L973 1094L850 1448H1128L1536 184L1876 1448H2142L1716 0H1352L1079 801L778 0H408Z" />
<glyph unicode="X" glyph-name="X" horiz-adv-x="1347" d="M4 0L520 752L74 1448H393L682 965L991 1448H1303L829 756L1315 0H991L666 543L319 0H4Z" />
<glyph unicode="Y" glyph-name="Y" horiz-adv-x="1355" d="M535 0V498L23 1448H344L684 735L1047 1448H1358L813 504V0H535Z" />
<glyph unicode="Z" glyph-name="Z" horiz-adv-x="1236" d="M74 0V201L778 1214H127V1448H1116V1262L403 233H1159V0H74Z" />
<glyph unicode="[" glyph-name="bracketleft" horiz-adv-x="688" d="M150 -451V1544H629V1331H410V-238H629V-451H150Z" />
<glyph unicode="\" glyph-name="backslash" horiz-adv-x="909" d="M571 -127L94 1573H338L815 -127H571Z" />
<glyph unicode="]" glyph-name="bracketright" horiz-adv-x="688" d="M59 -451V-238H279V1331H59V1544H539V-451H59Z" />
<glyph unicode="^" glyph-name="asciicircum" horiz-adv-x="1114" d="M70 602L414 1448H727L1049 602H782L567 1243L330 602H70Z" />
<glyph unicode="_" glyph-name="underscore" horiz-adv-x="1220" d="M88 -381V-158H1135V-381H88Z" />
<glyph unicode="`" glyph-name="grave" horiz-adv-x="1183" d="M788 1243L330 1470L424 1665L874 1409L788 1243Z" />
<glyph unicode="a" glyph-name="a" horiz-adv-x="1183" d="M420 -18Q260 -18 164 67T68 307Q68 647 528 651L750 653V750Q750 843 698 878T526 913Q368 913 203 862L147 1063Q353 1145 575 1145Q800 1145 908 1066T1016 811V268Q1016 230 1044 216T1124 199L1114
-8Q1094 -10 1061 -10Q808 -10 774 117Q695 55 613 19T420 -18ZM498 195Q552 195 621 215T750 266V487L543 479Q446 477 390 439T334 328Q334 262 379 229T498 195Z" />
<glyph unicode="b" glyph-name="b" horiz-adv-x="1263" d="M551 -23Q345 -23 141 45V1544H414V1079Q479 1112 539 1127T684 1143Q1178 1143 1178 604Q1178 467 1146 359T1059 180T923 63T751 -3T551 -23ZM629 936Q522 936 414 891V221Q521 195 588 195Q739 195
819 310T899 618Q899 774 838 855T629 936Z" />
<glyph unicode="c" glyph-name="c" horiz-adv-x="1060" d="M686 -25Q368 -25 226 113T84 532Q84 833 238 990T670 1147Q862 1147 997 1073L926 870Q793 922 684 922Q525 922 444 834T362 541Q362 455 378 395T434 289T544 221T719 199Q735 199 750 199T776 201T805
204T830 207T858 211T885 216T917 223T950 229L989 18Q982 16 955 10T920 2T888 -5T852 -12T817 -17T777 -21T735 -24T686 -25Z" />
<glyph unicode="d" glyph-name="d" horiz-adv-x="1263" d="M565 -18Q499 -18 436 -3T308 51T194 152T115 313T84 543Q84 699 128 816T253 1005T437 1112T670 1147Q744 1147 840 1128V1544H1112V0H840V90Q805 62 789 51T736 19T658 -9T565 -18ZM616 209Q715 209
840 281V907Q836 908 816 912T778 920T731 927T674 930Q508 930 433 831T358 559Q358 376 429 293T616 209Z" />
<glyph unicode="e" glyph-name="e" horiz-adv-x="1169" d="M657 -25Q522 -25 422 2T244 93T126 268T86 543Q86 673 113 776T187 948T302 1061T447 1125T614 1145Q864 1145 977 1002T1090 582V483H360Q359 414 377 363T424 280T498 230T589 204T694 197Q833 197
1016 244L1059 37Q879 -25 657 -25ZM367 666H809Q811 797 759 872T604 948Q504 948 439 874T367 666Z" />
<glyph unicode="f" glyph-name="f" horiz-adv-x="763" d="M219 -350V922H55V1118H219V1174Q219 1573 631 1573Q740 1573 821 1546L778 1339Q708 1356 641 1356Q492 1356 492 1171V1118H731V922H492V-350H219Z" />
<glyph unicode="g" glyph-name="g" horiz-adv-x="1255" d="M561 -471Q469 -471 354 -454T164 -406L209 -174Q392 -231 567 -231Q630 -231 676 -221T760 -186T818 -114T838 2V53Q782 17 734 3T604 -12Q84 -12 84 526Q84 656 114 760T199 936T330 1056T499 1125T698
1147Q881 1147 1110 1094V-33Q1110 -144 1066 -229T946 -367T772 -445T561 -471ZM651 195Q741 195 836 244V895Q733 920 674 920Q507 920 432 823T356 543Q356 356 431 276T651 195Z" />
<glyph unicode="h" glyph-name="h" horiz-adv-x="1302" d="M152 0V1544H424V995Q612 1145 801 1145Q872 1145 928 1132T1021 1099T1085 1044T1126 976T1149 893T1159 804T1161 707V0H893V676Q893 806 857 856T717 907Q586 907 424 815V0H152Z" />
<glyph unicode="i" glyph-name="i" horiz-adv-x="575" d="M152 0V1118H426V0H152ZM287 1272L94 1466L287 1659L481 1466L287 1272Z" />
<glyph unicode="j" glyph-name="j" horiz-adv-x="575" d="M0 -461Q-114 -461 -217 -416L-168 -201Q-92 -227 -8 -227Q80 -227 116 -177T152 -10V1118H424V-12Q424 -119 401 -199T341 -329T247 -408T132 -450T0 -461ZM285 1272L92 1466L285 1659L479 1466L285 1272Z" />
<glyph unicode="k" glyph-name="k" horiz-adv-x="1177" d="M152 0V1544H424V631L811 1118H1110L678 600L862 379Q930 299 995 253T1143 184L1106 -23Q1043 -19 1000 -11T900 18T790 82T684 193L424 530V0H152Z" />
<glyph unicode="l" glyph-name="l" horiz-adv-x="575" d="M152 0V1544H424V0H152Z" />
<glyph unicode="m" glyph-name="m" horiz-adv-x="1984" d="M152 0V1118H424V997Q616 1147 791 1147Q906 1147 985 1102T1098 979Q1292 1147 1491 1147Q1548 1147 1595 1138T1676 1114T1737 1075T1781 1027T1810 969T1829 907T1838 840T1842 775T1843 709V0H1571V678Q1571
799 1535 854T1397 909Q1269 909 1126 817Q1133 756 1133 711V0H862V678Q862 803 827 855T694 907Q558 907 424 817V0H152Z" />
<glyph unicode="n" glyph-name="n" horiz-adv-x="1302" d="M152 0V1118H424V999Q493 1048 539 1075T661 1124T819 1147Q885 1147 937 1134T1025 1100T1087 1044T1127 975T1150 892T1160 804T1163 709V0H893V678Q893 809 857 859T719 909Q580 909 424 821V0H152Z" />
<glyph unicode="o" glyph-name="o" horiz-adv-x="1267" d="M623 -25Q365 -25 224 127T82 549Q82 829 234 988T643 1147Q913 1147 1049 995T1186 561Q1186 418 1144 306T1027 122T849 13T623 -25ZM637 195Q716 195 770 222T854 301T895 414T907 557Q907 930 635
930Q358 930 358 557Q358 195 637 195Z" />
<glyph unicode="p" glyph-name="p" horiz-adv-x="1271" d="M152 -451V1118H422V1034Q500 1090 571 1117T737 1145Q836 1145 917 1113T1059 1016T1154 845T1188 600Q1188 465 1156 358T1068 181T936 65T775 0T594 -20Q534 -20 422 -10V-451H152ZM590 190Q750 190
830 299T911 590Q911 915 647 915Q602 915 554 904T488 885T422 856V207Q425 207 457 202T525 194T590 190Z" />
<glyph unicode="q" glyph-name="q" horiz-adv-x="1257" d="M840 -451V43Q734 -18 596 -18Q524 -18 459 -5T323 46T201 144T117 308T84 545Q84 855 248 1001T711 1147Q913 1147 1112 1085V-451H840ZM625 211Q679 211 740 223T840 252V905Q759 928 674 928Q356 928
356 557Q356 211 625 211Z" />
<glyph unicode="r" glyph-name="r" horiz-adv-x="874" d="M152 0V1118H424V969Q472 1037 551 1089T725 1141Q817 1141 870 1122L831 897Q767 909 688 909T537 871T424 782V0H152Z" />
<glyph unicode="s" glyph-name="s" horiz-adv-x="987" d="M428 -25Q347 -25 248 -12T78 23L111 236Q319 199 434 199Q547 199 601 228T655 307Q655 339 631 364T567 405T477 441T374 478T271 525T180 589T116 680T92 805Q92 916 153 995T313 1110T535 1147Q711
1147 868 1087L819 885Q672 928 543 928Q451 928 407 901T362 827Q362 790 393 762T473 713T582 673T701 624T810 558T891 459T922 319Q922 241 891 180T811 81T696 19T564 -15T428 -25Z" />
<glyph unicode="t" glyph-name="t" horiz-adv-x="925" d="M584 -27Q399 -27 302 56T205 334V909H41V1118H205V1348H477V1118H823V909H477V348Q477 267 512 237T631 207Q734 207 852 240L883 23Q823 1 739 -13T584 -27Z" />
<glyph unicode="u" glyph-name="u" horiz-adv-x="1300" d="M481 -25Q416 -25 365 -12T278 23T217 79T177 149T154 232T144 321T141 416V1118H414V446Q414 318 448 267T586 215Q733 215 879 303V1118H1151V0H879V121Q832 87 801 68T719 24T608 -13T481 -25Z" />
<glyph unicode="v" glyph-name="v" horiz-adv-x="1161" d="M403 0L14 1118H307L514 451L578 221L647 453L877 1118H1161L739 0H403Z" />
<glyph unicode="w" glyph-name="w" horiz-adv-x="1841" d="M348 0L39 1118H326L524 217L766 1118H1096L1305 217L1544 1118H1823L1470 0H1126L961 688L924 862L883 690L694 0H348Z" />
<glyph unicode="x" glyph-name="x" horiz-adv-x="1163" d="M23 0L426 571L49 1118H365L582 743L801 1118H1110L735 573L1143 0H815L582 399L344 0H23Z" />
<glyph unicode="y" glyph-name="y" horiz-adv-x="1155" d="M340 -451L494 0H387L12 1118H307L518 403L571 215L631 401L872 1118H1149L602 -451H340Z" />
<glyph unicode="z" glyph-name="z" horiz-adv-x="1060" d="M72 0V190L647 895H113V1118H969V934L397 221H977V0H72Z" />
<glyph unicode="{" glyph-name="braceleft" horiz-adv-x="710" d="M596 -455Q498 -455 425 -440T293 -390T206 -293T176 -141Q176 -122 180 -82L223 311Q228 362 187 406T61 451V668Q145 668 186 711T223 805L180 1206Q176 1252 176 1270Q179 1435 287 1506T596
1577H686V1348H604Q516 1348 475 1304T442 1184L485 823Q510 626 346 563V559Q510 486 485 297L442 -63Q434 -137 474 -181T604 -225H686V-455H596Z" />
<glyph unicode="|" glyph-name="bar" horiz-adv-x="544" d="M150 -451V1544H395V-451H150Z" />
<glyph unicode="}" glyph-name="braceright" horiz-adv-x="710" d="M115 -455H23V-225H106Q196 -225 236 -181T268 -63L225 297Q201 487 365 559V563Q201 626 225 823L268 1184Q277 1259 236 1303T106 1348H23V1577H115Q314 1577 422 1506T535 1270Q535 1264 530
1206L487 805Q482 755 523 712T649 668V451Q563 451 523 407T487 311L530 -82Q535 -132 535 -141Q535 -230 506 -292T418 -390T287 -440T115 -455Z" />
<glyph unicode="~" glyph-name="asciitilde" horiz-adv-x="1155" d="M770 526Q706 526 645 545T545 587T458 630T369 649Q283 649 205 584L78 756Q225 922 381 922Q446 922 503 903T596 860T679 817T772 797Q774 797 779 797Q809 797 827 799T880 817T952 864L1079
705Q1031 632 942 579T770 526Z" />
</font>
</defs>
</svg>
